<?xml version="1.0" encoding="utf-8"?>
<!-- Generator: Adobe Illustrator 18.0.0, SVG Export Plug-In . SVG Version: 6.00 Build 0)  -->
<!DOCTYPE svg PUBLIC "-//W3C//DTD SVG 1.1//EN" "http://www.w3.org/Graphics/SVG/1.1/DTD/svg11.dtd">
<svg version="1.1" id="Layer_1" xmlns="http://www.w3.org/2000/svg" xmlns:xlink="http://www.w3.org/1999/xlink" x="0px" y="0px"
	 viewBox="0 0 841.9 595.3" enable-background="new 0 0 841.9 595.3" xml:space="preserve">
<g>
	
		<radialGradient id="SVGID_1_" cx="338.5529" cy="219.9773" r="93.7372" gradientTransform="matrix(1.1499 2.566057e-03 -1.997941e-03 0.8953 -126.0696 24.991)" gradientUnits="userSpaceOnUse">
		<stop  offset="0" style="stop-color:#335C6D"/>
		<stop  offset="0.2966" style="stop-color:#2F5566"/>
		<stop  offset="0.773" style="stop-color:#204351"/>
		<stop  offset="1" style="stop-color:#163744"/>
	</radialGradient>
	<path fill="url(#SVGID_1_)" d="M409.5,238l-24,13.2c0,0-46.6-16.5-69.1-36c0,0-116.6,52.8-161.7,36.5c-45-16.5-38.9-48.2-37.4-53.2
		c1.5-5.2,92.4,33.9,197-7.8L409.5,238z"/>
	
		<radialGradient id="SVGID_2_" cx="331.4768" cy="267.1219" r="75.222" gradientTransform="matrix(1.1499 2.566057e-03 -1.997941e-03 0.8953 -126.0696 24.991)" gradientUnits="userSpaceOnUse">
		<stop  offset="0" style="stop-color:#335C6D"/>
		<stop  offset="0.2966" style="stop-color:#2F5566"/>
		<stop  offset="0.773" style="stop-color:#204351"/>
		<stop  offset="1" style="stop-color:#163744"/>
	</radialGradient>
	<path fill="url(#SVGID_2_)" d="M368.1,262.6c0,0-29.3,6.1-54.9-10.3c0,0-135.5,91.7-172.1,22.1c0,0,97.7,13.4,172.2-44.7
		C313.4,229.8,351.6,258.3,368.1,262.6z"/>
	
		<radialGradient id="SVGID_3_" cx="351.1908" cy="306.6154" r="50.2748" gradientTransform="matrix(1.1499 2.566057e-03 -1.997941e-03 0.8953 -126.0696 24.991)" gradientUnits="userSpaceOnUse">
		<stop  offset="0" style="stop-color:#335C6D"/>
		<stop  offset="0.2966" style="stop-color:#2F5566"/>
		<stop  offset="0.773" style="stop-color:#204351"/>
		<stop  offset="1" style="stop-color:#163744"/>
	</radialGradient>
	<path fill="url(#SVGID_3_)" d="M347.9,276.8l-4.6,7.2c0,0-23.3-1.1-34.6-0.1c0,0-49.8,68.4-102.3,42.7c0,0,63.9-23.3,103.9-58.1
		L347.9,276.8z"/>
	
		<radialGradient id="SVGID_4_" cx="370.7768" cy="325.0681" r="24.3239" gradientTransform="matrix(1.1499 2.566057e-03 -1.997941e-03 0.8953 -126.0696 24.991)" gradientUnits="userSpaceOnUse">
		<stop  offset="0" style="stop-color:#335C6D"/>
		<stop  offset="0.2966" style="stop-color:#2F5566"/>
		<stop  offset="0.773" style="stop-color:#204351"/>
		<stop  offset="1" style="stop-color:#163744"/>
	</radialGradient>
	<path fill="url(#SVGID_4_)" d="M329,298.4l-16.5-2c0,0-19.7,33.6-42.2,38.8C270.3,334.9,301,352.4,329,298.4z"/>
	
		<radialGradient id="SVGID_5_" cx="561.4531" cy="317.6172" r="155.2452" gradientTransform="matrix(1.1499 2.566057e-03 -1.997941e-03 0.8953 -126.0696 24.991)" gradientUnits="userSpaceOnUse">
		<stop  offset="0" style="stop-color:#335C6D"/>
		<stop  offset="0.2966" style="stop-color:#2F5566"/>
		<stop  offset="0.773" style="stop-color:#204351"/>
		<stop  offset="1" style="stop-color:#163744"/>
	</radialGradient>
	<path fill="url(#SVGID_5_)" d="M333.4,371.9c0,0-4.5-11.2,12.1-24.6c16.5-13.2,20.7-19,26.8-18c6.3,1,13.2,16.7,14.7,25.7
		c1.5,8.8-14.6,27.6-20.7,38.2c-6.1,10.6-12.9,25.6-12.9,25.6s-27.5-4.1-29.6,10.2l44.9,0.1c0,0-5-2.8-6-6.2c-1-3.4-2.1-4-2.1-4
		s15.8-29,25.4-36c9.6-7.2,19.6-8.8,26.8,7.9c7.2,16.6,10.2,24.9,9.5,33.1c0,0-21.3-4.9-25.3,6.8l39.3,0.1c0,0-4.6-52.5-40.5-69.6
		c-6.5-4-0.4-21.8-12.9-36.9c-12.5-15.1-35.8,8.1-42.6,14.1c-6.8,6.2-10.5,10.2-11.4,16c0,0-5.4-8.8,0.8-20
		c6.4-11.2,13.6-9.8,13.6-9.8s-3.8-5.2-6.5-5.2c0,0,17.6-27.6,23.6-31.6c6-4,40.7-17.3,44.2-15.9c3.5,1.4,11,31.7,33.9,55.6
		c23.1,23.9,61.7,70.5,65.9,104.5l24.3,0.1c0,0-17-42.9-43-65.6c-26-22.5-64.9-63.9-68.2-96.3c0,0,78-35.3,98.3-50.3
		c0,0,44.3,23.3,101.9,32.3c57.5,8.9,97.2-1.6,100.4-47.5c0,0-81.9,15.4-125.6,4.5S519,189.8,519,189.8s-84.6,49.5-108.6,59.1
		c-24,9.6-50,24.7-55,30.1c-5,5.4-33.2,40.6-33.2,40.6s5.4,0.6,5.7,5.4c0,0-6.8,7.4-7.8,19C319.3,355.4,321,368.9,333.4,371.9z"/>
	
		<radialGradient id="SVGID_6_" cx="492.9008" cy="416.756" r="26.6251" gradientTransform="matrix(1.1499 2.566057e-03 -1.997941e-03 0.8953 -126.0696 24.991)" gradientUnits="userSpaceOnUse">
		<stop  offset="0" style="stop-color:#335C6D"/>
		<stop  offset="0.2966" style="stop-color:#2F5566"/>
		<stop  offset="0.773" style="stop-color:#204351"/>
		<stop  offset="1" style="stop-color:#163744"/>
	</radialGradient>
	<path fill="url(#SVGID_6_)" d="M426.6,367.3c0,0,18.2,41.3,17.1,64.2l9.6-0.4C453.2,431.3,443.5,377.6,426.6,367.3z"/>
	
		<radialGradient id="SVGID_7_" cx="505.3186" cy="412.7278" r="30.7489" gradientTransform="matrix(1.1499 2.566057e-03 -1.997941e-03 0.8953 -126.0696 24.991)" gradientUnits="userSpaceOnUse">
		<stop  offset="0" style="stop-color:#335C6D"/>
		<stop  offset="0.2966" style="stop-color:#2F5566"/>
		<stop  offset="0.773" style="stop-color:#204351"/>
		<stop  offset="1" style="stop-color:#163744"/>
	</radialGradient>
	<path fill="url(#SVGID_7_)" d="M436.8,359.3c0,0,24.6,46.1,24.4,73l10.5-0.4C471.8,431.9,459.4,371.8,436.8,359.3z"/>
	
		<radialGradient id="SVGID_8_" cx="519.5914" cy="408.4759" r="34.0412" gradientTransform="matrix(1.1499 2.566057e-03 -1.997941e-03 0.8953 -126.0696 24.991)" gradientUnits="userSpaceOnUse">
		<stop  offset="0" style="stop-color:#335C6D"/>
		<stop  offset="0.2966" style="stop-color:#2F5566"/>
		<stop  offset="0.773" style="stop-color:#204351"/>
		<stop  offset="1" style="stop-color:#163744"/>
	</radialGradient>
	<path fill="url(#SVGID_8_)" d="M446.8,353.1c0,0,33,43.4,32.9,77.8l14.7,0C494.4,431,472.8,365,446.8,353.1z"/>
	
		<radialGradient id="SVGID_9_" cx="598.8313" cy="273.7291" r="85.2661" gradientTransform="matrix(1.1499 2.566057e-03 -1.997941e-03 0.8953 -126.0696 24.991)" gradientUnits="userSpaceOnUse">
		<stop  offset="0" style="stop-color:#335C6D"/>
		<stop  offset="0.2966" style="stop-color:#2F5566"/>
		<stop  offset="0.773" style="stop-color:#204351"/>
		<stop  offset="1" style="stop-color:#163744"/>
	</radialGradient>
	<path fill="url(#SVGID_9_)" d="M431.9,273.3l4.3,4.4c0,0,56.1-11.1,85-23.3c0,0,62.7,51.6,111.6,54.5c48.9,2.9,59.3-33.3,59.3-33.3
		s-89.7,9.4-172.3-41.7L431.9,273.3z"/>
	
		<radialGradient id="SVGID_10_" cx="572.2048" cy="310.7921" r="64.1781" gradientTransform="matrix(1.1499 2.566057e-03 -1.997941e-03 0.8953 -126.0696 24.991)" gradientUnits="userSpaceOnUse">
		<stop  offset="0" style="stop-color:#335C6D"/>
		<stop  offset="0.2966" style="stop-color:#2F5566"/>
		<stop  offset="0.773" style="stop-color:#204351"/>
		<stop  offset="1" style="stop-color:#163744"/>
	</radialGradient>
	<path fill="url(#SVGID_10_)" d="M436.2,284.6l2.9,4.4c0,0,41.1,5.5,81.4-4.2c0,0,45.5,79.6,105.9,44.5c0,0-80.3-26.4-101.3-57.9
		C525.1,271.3,458.3,282.6,436.2,284.6z"/>
	
		<radialGradient id="SVGID_11_" cx="515.3672" cy="324.4429" r="21.2497" gradientTransform="matrix(1.1499 2.566057e-03 -1.997941e-03 0.8953 -126.0696 24.991)" gradientUnits="userSpaceOnUse">
		<stop  offset="0" style="stop-color:#335C6D"/>
		<stop  offset="0.2966" style="stop-color:#2F5566"/>
		<stop  offset="0.773" style="stop-color:#204351"/>
		<stop  offset="1" style="stop-color:#163744"/>
	</radialGradient>
	<path fill="url(#SVGID_11_)" d="M441.2,298.6l20.5-0.6c0,0,9.2,24.9,29.1,37.5C490.7,335.4,455.1,330.9,441.2,298.6z"/>
	
		<radialGradient id="SVGID_12_" cx="542.3777" cy="325.8975" r="20.6494" gradientTransform="matrix(1.1499 2.566057e-03 -1.997941e-03 0.8953 -126.0696 24.991)" gradientUnits="userSpaceOnUse">
		<stop  offset="0" style="stop-color:#335C6D"/>
		<stop  offset="0.2966" style="stop-color:#2F5566"/>
		<stop  offset="0.773" style="stop-color:#204351"/>
		<stop  offset="1" style="stop-color:#163744"/>
	</radialGradient>
	<path fill="url(#SVGID_12_)" d="M472.9,301.7l19.3-1.8c0,0,17,25.9,28.8,36.5C521,336.5,491.3,334.8,472.9,301.7z"/>
	
		<radialGradient id="SVGID_13_" cx="574.2529" cy="326.6952" r="24.8284" gradientTransform="matrix(1.1499 2.566057e-03 -1.997941e-03 0.8953 -126.0696 24.991)" gradientUnits="userSpaceOnUse">
		<stop  offset="0" style="stop-color:#335C6D"/>
		<stop  offset="0.2966" style="stop-color:#2F5566"/>
		<stop  offset="0.773" style="stop-color:#204351"/>
		<stop  offset="1" style="stop-color:#163744"/>
	</radialGradient>
	<path fill="url(#SVGID_13_)" d="M503.6,300.8l16.1-2.8c0,0,25.5,32.5,44.1,42C563.5,340.2,529.2,340.1,503.6,300.8z"/>
</g>
</svg>
